HIERARCHY
ROOT Hips
{
	OFFSET 0.000000 8.830580 0.000000
	CHANNELS 6 Xposition Yposition Zposition Zrotation Yrotation Xrotation 
	JOINT Spine
	{
		OFFSET 0.000000 0.010000 0.000000
		CHANNELS 3 Zrotation Yrotation Xrotation
		JOINT Spine1
		{
			OFFSET 0.000000 2.459130 0.000000
			CHANNELS 3 Zrotation Yrotation Xrotation
			JOINT Neck
			{
				OFFSET 0.000000 2.484630 0.000000
				CHANNELS 3 Zrotation Yrotation Xrotation
				JOINT Head_virtual
				{
					OFFSET 0.000000 0.000000 0.000000
					CHANNELS 3 Zrotation Yrotation Xrotation
					JOINT Head
					{
						OFFSET 0.000000 0.927525 0.000000
						CHANNELS 3 Zrotation Yrotation Xrotation
						End Site
						{
							OFFSET 0.000000 0.000000 0.000000
						}
					}
				}
				JOINT LeftUpArm_virtual
				{
					OFFSET 0.000000 0.000000 0.000000
					CHANNELS 3 Zrotation Yrotation Xrotation
					JOINT LeftUpArm
					{
						OFFSET 1.248820 0.000000 0.000000
						CHANNELS 3 Zrotation Yrotation Xrotation
						JOINT LeftForeArm
						{
							OFFSET 2.597580 0.000000 0.000000
							CHANNELS 3 Zrotation Yrotation Xrotation
							JOINT LeftHand
							{
								OFFSET 2.455420 0.000000 0.000000
								CHANNELS 3 Zrotation Yrotation Xrotation
								End Site
								{
									OFFSET 0.000000 0.000000 0.000000
								}
							}
						}
					}
				}
				JOINT RightUpArm_virtual
				{
					OFFSET -0.000000 -0.000000 -0.000000
					CHANNELS 3 Zrotation Yrotation Xrotation
					JOINT RightUpArm
					{
						OFFSET -1.248820 -0.000000 -0.000000
						CHANNELS 3 Zrotation Yrotation Xrotation
						JOINT RightForeArm
						{
							OFFSET -2.597580 -0.000000 -0.000000
							CHANNELS 3 Zrotation Yrotation Xrotation
							JOINT RightHand
							{
								OFFSET -2.455420 -0.000000 -0.000000
								CHANNELS 3 Zrotation Yrotation Xrotation
								End Site
								{
									OFFSET 0.000000 0.000000 0.000000
								}
							}
						}
					}
				}
			}
		}
	}
	JOINT LeftUpLeg
	{
		OFFSET 1.271939 0.000000 0.000000
		CHANNELS 3 Zrotation Yrotation Xrotation
		JOINT LeftLowLeg
		{
			OFFSET 0.000000 -4.342910 0.000000
			CHANNELS 3 Zrotation Yrotation Xrotation
			JOINT LeftFoot
			{
				OFFSET 0.000000 -4.487670 0.000000
				CHANNELS 3 Zrotation Yrotation Xrotation
				JOINT LeftToeBase
				{
					OFFSET 0.000000 0.000000 1.515070
					CHANNELS 3 Zrotation Yrotation Xrotation
					End Site
					{
						OFFSET 0.000000 0.000000 0.000000
					}
				}
			}
		}
	}
	JOINT RightUpLeg
	{
		OFFSET -1.271939 0.000000 0.000000
		CHANNELS 3 Zrotation Yrotation Xrotation
		JOINT RightLowLeg
		{
			OFFSET 0.000000 -4.342910 0.000000
			CHANNELS 3 Zrotation Yrotation Xrotation
			JOINT RightFoot
			{
				OFFSET 0.000000 -4.487670 0.000000
				CHANNELS 3 Zrotation Yrotation Xrotation
				JOINT RightToeBase
				{
					OFFSET 0.000000 0.000000 1.515070
					CHANNELS 3 Zrotation Yrotation Xrotation
					End Site
					{
						OFFSET 0.000000 0.000000 0.000000
					}
				}
			}
		}
	}
}
MOTION
Frames: 17
Frame Time: 0.041667
-15.364839 8.981503 28.731816 -172.419215 -14.230139 -175.671971 5.249059 0.548549 -11.954556 -2.806719 -6.803615 10.151033 0.000000 0.000000 0.000000 5.457594 -9.763874 -17.013838 -19.225360 11.280291 -94.691178 -26.646299 -4.924350 10.825100 -42.193199 -21.505600 66.732300 180.000000 -84.098198 -180.000000 -9.402050 13.925600 -7.138970 21.876801 -7.152440 -1.565450 17.384600 0.931534 -40.841003 0.000000 39.215302 0.000000 -1.464970 -0.587303 -31.971100 3.255434 -4.891847 -28.744510 0.000000 0.000000 54.877998 -3.686897 18.980549 -6.813682 0.000000 0.000000 -11.821340 10.117635 16.801891 -7.289700 0.000000 0.000000 8.904470 10.826780 -13.515583 2.628954 0.000000 0.000000 -19.259720 
-15.367734 8.978639 28.647822 -172.527948 -14.916344 -175.731467 5.306297 0.803278 -11.664263 -3.012652 -6.662271 10.088228 0.000000 0.000000 0.000000 2.606340 -8.118779 -17.103031 -19.906693 11.996990 -94.959787 -26.531700 -4.901820 10.895600 -42.472900 -21.547501 66.814598 -180.000000 -84.203903 180.000000 -9.539550 14.130900 -6.597390 21.857000 -7.162210 -1.484320 17.322599 0.968823 -40.992004 0.000000 39.296700 0.000000 -1.418110 -0.600371 -31.977501 2.780802 -4.660176 -29.151898 0.000000 0.000000 50.474300 -2.166692 19.422123 -5.998921 0.000000 0.000000 -12.080200 10.350600 16.674056 -6.660454 0.000000 0.000000 8.836650 10.271966 -14.257421 2.274079 0.000000 0.000000 -19.663980 
-15.372520 8.973949 28.561116 -172.595437 -15.664329 -175.710310 5.342679 0.991269 -11.496444 -3.153581 -6.542826 10.066188 0.000000 0.000000 0.000000 -0.014074 -6.553618 -17.320440 -20.933278 12.759148 -95.249043 -26.438900 -4.908410 10.976800 -42.718300 -21.548100 66.870201 180.000000 -84.318398 -180.000000 -9.763300 14.252400 -6.160180 21.723400 -7.040920 -1.449470 17.351999 0.866400 -41.050995 0.000000 39.321800 0.000000 -1.555740 -0.610538 -32.157799 2.353610 -4.502781 -29.421183 0.000000 0.000000 45.701500 -1.031357 19.739296 -5.240100 0.000000 0.000000 -12.052470 10.608082 16.584467 -6.144505 0.000000 0.000000 8.852200 9.905597 -15.055852 1.768423 0.000000 0.000000 -19.451860 
-15.378538 8.966842 28.472885 -172.635814 -16.443194 -175.687914 5.369378 1.157565 -11.343046 -3.281882 -6.433253 10.065234 0.000000 0.000000 0.000000 -2.397738 -5.128753 -17.857143 -21.834535 13.545047 -95.246800 -26.382200 -4.980950 10.985600 -42.869801 -21.444901 66.934402 180.000000 -84.372803 -180.000000 -10.118900 14.375600 -6.064310 21.605000 -7.002310 -1.435970 17.391701 0.876207 -41.101013 0.000000 39.355400 0.000000 -1.739490 -0.665218 -32.402000 1.905042 -4.227485 -29.535887 0.000000 0.000000 40.692501 -0.085689 19.795192 -4.554339 0.000000 0.000000 -12.164360 10.897804 16.450559 -5.668893 0.000000 0.000000 8.959260 9.558204 -15.784035 1.176985 0.000000 0.000000 -19.228100 
-15.386887 8.957611 28.382532 -172.646424 -17.236497 -175.642724 5.395617 1.293746 -11.220798 -3.410719 -6.351638 10.051545 0.000000 0.000000 0.000000 -4.621791 -3.731394 -18.589390 -22.666260 14.391185 -95.111484 -26.276400 -5.039750 11.013600 -43.019501 -21.361099 66.993301 180.000000 -84.440002 -180.000000 -10.324300 14.330300 -6.196260 21.454399 -6.930330 -1.441090 17.475800 0.865894 -41.084015 0.000000 39.355598 0.000000 -1.707420 -0.704700 -31.961500 1.418427 -3.812437 -29.546746 0.000000 0.000000 35.588200 0.368273 19.371694 -4.325827 0.000000 0.000000 -12.249480 11.218811 16.054938 -5.246740 0.000000 0.000000 9.141900 9.192047 -16.305351 0.525434 0.000000 0.000000 -18.927460 
-15.397699 8.946288 28.289366 -172.646636 -18.062727 -175.493279 5.417050 1.416788 -11.249384 -3.598194 -6.270450 10.059834 0.000000 0.000000 0.000000 -6.427150 -2.480242 -19.267186 -23.578137 15.226154 -95.042049 -26.137400 -5.054080 11.055800 -43.118401 -21.398800 67.078300 180.000000 -84.499199 -180.000000 -10.387900 14.286300 -5.984870 21.377100 -6.866700 -1.397170 17.483299 0.903526 -41.065002 0.000000 39.278801 0.000000 -1.745970 -0.794167 -31.424601 0.903058 -3.395108 -29.521126 0.000000 0.000000 30.429300 0.519319 18.678598 -4.354247 0.000000 0.000000 -12.335000 11.505321 15.704927 -4.958070 0.000000 0.000000 9.372820 9.452285 -16.715515 -0.448763 0.000000 0.000000 -18.570660 
-15.409702 8.933519 28.192259 -172.591949 -18.917346 -175.659619 5.424642 1.517969 -10.979701 -3.725695 -6.239298 10.011749 0.000000 0.000000 0.000000 -8.735852 -1.048602 -20.087781 -23.999264 16.069452 -94.900467 -26.064699 -5.109640 11.081700 -43.122299 -21.383699 67.170601 180.000000 -84.484299 -180.000000 -10.395100 14.286700 -6.127320 21.306999 -6.832480 -1.360300 17.453100 0.961736 -40.962006 0.000000 39.170300 0.000000 -1.647890 -0.415124 -32.301998 0.401318 -2.967817 -29.080630 0.000000 0.000000 25.307501 0.193924 17.818511 -4.420542 0.000000 0.000000 -12.430540 11.961997 15.297049 -4.341007 0.000000 0.000000 9.612800 8.756429 -17.408067 -0.857896 0.000000 0.000000 -19.069270 
-15.425833 8.919190 28.092377 -172.525558 -19.799378 -175.716110 5.433948 1.601566 -10.867997 -3.872032 -6.207410 9.980530 0.000000 0.000000 0.000000 -11.060121 0.396393 -20.948112 -24.421217 16.918452 -94.841245 -25.950199 -5.189310 11.083200 -43.172501 -21.364500 67.258301 180.000000 -84.482803 -180.000000 -10.387300 14.267600 -6.321330 21.193800 -6.774380 -1.410910 17.497801 0.903158 -40.671997 0.000000 39.148602 0.000000 -1.654060 -0.412987 -32.348499 -0.131483 -2.576255 -28.673765 0.000000 0.000000 20.345699 -0.632938 17.064451 -4.631831 0.000000 0.000000 -12.232560 12.393468 14.538121 -3.812805 0.000000 0.000000 9.822100 8.376390 -17.745657 -1.465756 0.000000 0.000000 -19.090770 
-15.444507 8.903808 27.990517 -172.479058 -20.678176 -175.717170 5.404253 1.681385 -10.777796 -4.032699 -6.169813 9.859806 0.000000 0.000000 0.000000 -13.247461 1.797902 -21.755372 -24.960316 17.736185 -94.966200 -25.926800 -5.248000 11.110100 -43.104599 -21.400200 67.359901 -180.000000 -84.450203 180.000000 -10.439900 14.296000 -6.583990 21.121700 -6.837130 -1.250470 17.550501 1.117500 -40.692993 0.000000 39.013901 0.000000 -1.675330 -0.298239 -32.383400 -0.751346 -2.088225 -28.275164 0.000000 0.000000 15.699800 -1.631147 16.437888 -4.666740 0.000000 0.000000 -12.283210 12.791033 13.571209 -3.305522 0.000000 0.000000 10.002900 8.050296 -17.945972 -2.122404 0.000000 0.000000 -18.972530 
-15.466515 8.886444 27.884937 -172.353335 -21.458508 -175.752305 5.410870 1.844367 -10.711315 -4.146847 -6.058301 9.688890 0.000000 0.000000 0.000000 -15.462798 3.207179 -22.423026 -25.788438 18.550167 -95.381168 -25.906799 -5.401310 11.127200 -43.080700 -21.393400 67.533600 -180.000000 -84.447197 180.000000 -10.484800 14.295500 -6.654870 21.020599 -6.751010 -1.068510 17.642799 0.975896 -40.679993 0.000000 39.083500 0.000000 -1.721710 -0.357530 -32.521099 -1.619595 -0.941743 -27.858791 0.000000 0.000000 11.535000 -2.261544 16.204429 -4.703662 0.000000 0.000000 -12.140570 13.208279 12.753511 -2.776194 0.000000 0.000000 10.189600 7.901608 -17.881168 -2.680152 0.000000 0.000000 -19.295750 
-15.490585 8.865496 27.773751 -172.143988 -22.206221 -176.001670 5.365754 1.989871 -10.518215 -4.084250 -5.924136 9.480233 0.000000 0.000000 0.000000 -17.659664 4.572166 -23.030199 -26.504479 19.354215 -95.800209 -25.941299 -5.514290 11.006300 -43.132301 -21.325800 67.846100 -180.000000 -84.432098 180.000000 -10.627700 14.392400 -6.973330 20.884899 -6.665950 -1.053160 17.678200 0.804970 -40.585999 0.000000 39.095798 0.000000 -1.684450 -0.361887 -32.459000 -2.672730 0.735880 -27.349744 0.000000 0.000000 8.097340 -3.100170 16.107171 -5.101980 0.000000 0.000000 -11.901160 13.753261 11.675829 -2.037670 0.000000 0.000000 10.410300 7.682511 -17.747130 -3.302735 0.000000 0.000000 -19.366370 
-15.521181 8.842801 27.661354 -171.949307 -22.809230 -175.997545 5.409401 2.266246 -10.555050 -4.204396 -5.715492 9.179084 0.000000 0.000000 0.000000 -19.648222 5.912299 -23.682500 -27.337477 20.207315 -96.190094 -25.869499 -5.609860 11.031300 -43.254398 -21.370701 68.099701 180.000000 -84.485497 -180.000000 -10.632300 14.397700 -6.980740 20.868999 -6.628240 -1.064540 17.649500 0.669671 -40.471008 0.000000 39.124100 0.000000 -1.736160 -0.473952 -32.614498 -3.540511 2.001471 -27.094181 0.000000 0.000000 5.316920 -3.610472 17.432260 -5.339393 0.000000 0.000000 -11.837460 14.159776 10.483118 -1.576592 0.000000 0.000000 10.731400 7.524216 -17.252144 -3.940969 0.000000 0.000000 -19.492750 
-15.549333 8.816693 27.544597 -171.705310 -23.484775 -175.961006 5.255487 2.354630 -10.671215 -4.005866 -5.530651 8.856026 0.000000 0.000000 0.000000 -21.966715 7.387402 -24.262773 -28.019682 21.098723 -96.745299 -25.792000 -5.535420 10.954300 -43.506100 -21.539700 68.455299 180.000000 -84.582497 -180.000000 -11.001800 14.419100 -7.542330 20.767300 -6.551410 -1.122580 17.636700 0.593006 -40.365997 0.000000 39.166401 0.000000 -1.785100 -0.598513 -32.796902 -5.187814 4.876639 -27.486958 0.000000 0.000000 4.202000 -3.947570 17.998098 -5.634333 0.000000 0.000000 -11.892660 14.641452 9.417917 -1.219905 0.000000 0.000000 11.157400 7.314196 -17.006888 -4.610633 0.000000 0.000000 -19.664500 
-15.580955 8.787984 27.424231 -171.505671 -24.086206 -175.894902 5.066122 2.522634 -10.789181 -3.812142 -5.258659 8.405955 0.000000 0.000000 0.000000 -23.877110 8.679778 -24.559519 -28.614783 21.926645 -97.323761 -25.752800 -5.730530 10.844700 -43.724098 -21.389500 68.783501 180.000000 -84.556396 -180.000000 -11.004300 14.557800 -7.443720 20.641001 -6.609090 -1.093780 17.719999 0.525328 -40.393005 0.000000 39.348900 0.000000 -1.745740 -0.700196 -32.986301 -6.816885 7.704850 -28.112490 0.000000 0.000000 4.184700 -2.875975 19.801046 -5.856366 0.000000 0.000000 -12.093280 15.076320 8.662927 -0.909357 0.000000 0.000000 11.722000 7.223451 -16.919877 -5.397492 0.000000 0.000000 -19.853490 
-15.615374 8.757426 27.297836 -171.353229 -24.689178 -175.690782 4.802234 2.656986 -11.109295 -3.668967 -4.962746 7.964681 0.000000 0.000000 0.000000 -25.648744 9.853027 -24.854373 -28.950556 22.673943 -97.787149 -25.641001 -5.706130 10.860000 -43.948399 -21.559299 69.129501 180.000000 -84.632301 -180.000000 -11.105100 14.453300 -7.299490 20.560301 -6.627960 -1.124210 17.781700 0.394055 -40.290009 0.000000 39.470600 0.000000 -1.593140 -0.461835 -32.492699 -8.561808 10.699726 -29.138858 0.000000 0.000000 5.300180 -0.698360 22.278394 -5.988587 0.000000 0.000000 -12.247540 15.456806 8.070374 -0.726465 0.000000 0.000000 12.386600 7.200515 -16.896146 -6.247804 0.000000 0.000000 -20.094260 
-15.653661 8.726610 27.165148 -171.342704 -25.190921 -175.288507 4.348254 2.759028 -11.642184 -3.487728 -4.558276 7.525540 0.000000 0.000000 0.000000 -27.512806 10.922194 -25.179006 -28.854398 23.349771 -98.058016 -25.533199 -5.642950 10.840600 -44.200600 -21.756701 69.507103 -180.000000 -84.744797 180.000000 -11.124900 14.560400 -7.058240 20.477900 -6.660110 -1.129310 17.875700 0.314460 -40.174988 0.000000 39.544300 0.000000 -1.689000 -0.640644 -33.318600 -10.288040 13.555064 -30.373775 0.000000 0.000000 7.171760 1.721438 24.851473 -5.706540 0.000000 0.000000 -12.564590 15.671934 7.527457 -0.701991 0.000000 0.000000 13.200500 7.093721 -16.779737 -7.101948 0.000000 0.000000 -20.532860 
-15.695585 8.694518 27.025434 -171.483258 -25.514201 -174.772588 3.731917 2.857193 -12.297826 -3.310673 -4.041906 7.090466 0.000000 0.000000 0.000000 -28.935399 11.788215 -25.350048 -28.988051 23.948576 -98.357164 -25.396099 -5.526540 10.740300 -44.485699 -21.907200 69.907600 -180.000000 -84.891502 180.000000 -11.279100 14.622100 -6.836970 20.393299 -6.646290 -1.033580 17.989401 0.229748 -40.130005 0.000000 39.623199 0.000000 -1.658650 -0.683860 -33.415501 -11.964776 16.343431 -31.563438 0.000000 0.000000 9.354440 5.655288 27.108592 -4.480898 0.000000 0.000000 -13.568880 15.695183 6.782366 -0.780805 0.000000 0.000000 14.281000 7.120298 -16.175298 -8.062146 0.000000 0.000000 -20.922490 
